# xmcd CD database file
#
# Track frame offsets:
#	150
#	21355
#	47452
#	67982
#	87530
#	109325
#	137752
#	170270
#	188550
#	212470
#	236602
#	263767
#
# Disc length: 3794 seconds
#
# Revision: 1
# Processed by: cddbd v1.5.2PL0 Copyright (c) Steve Scherf et al.
# Submitted via: CDex 1.70beta2
#
DISCID=9e0ed00c
DTITLE=THE PRIVATES - Honey Drops
DYEAR=1992
DGENRE=ロック
TTITLE0=Travelin Man
TTITLE1=Sister Midnight
TTITLE2=涙のエアポート
TTITLE3=Alright OK!
TTITLE4=Sunday
TTITLE5=運命の鞭
TTITLE6=Boogie Insane
TTITLE7=Living Dead
TTITLE8=Rain Drops
TTITLE9=Nasty Music
TTITLE10=My Justice
TTITLE11=Ex Lovers
EXTD=YEAR: 1992
EXTT0=
EXTT1=
EXTT2=
EXTT3=
EXTT4=
EXTT5=
EXTT6=
EXTT7=
EXTT8=
EXTT9=
EXTT10=
EXTT11=
PLAYORDER=
